<svg width="40" height="40" viewBox="0 0 40 40" fill="none" xmlns="http://www.w3.org/2000/svg">
<path fill-rule="evenodd" clip-rule="evenodd" d="M7.53491 8.38338C7.53491 5.54779 9.8352 3.30005 12.6182 3.30005H27.1816C30.0172 3.30005 32.2649 5.60034 32.2649 8.38338V31.6167C32.2649 34.4523 29.9646 36.7001 27.1816 36.7001H12.6182C9.78265 36.7001 7.53491 34.3998 7.53491 31.6167V27.7067C7.53491 27.0791 8.02393 26.59 8.65158 26.59C9.27923 26.59 9.76825 27.0791 9.76825 27.7067V31.6167C9.76825 33.1991 11.0359 34.4667 12.6182 34.4667H27.1816C28.7639 34.4667 30.0316 33.1991 30.0316 31.6167V8.38338C30.0316 6.80103 28.7639 5.53338 27.1816 5.53338H12.6182C11.0359 5.53338 9.76825 6.80103 9.76825 8.38338V12.2934C9.76825 12.921 9.27923 13.41 8.65158 13.41C8.02393 13.41 7.53491 12.921 7.53491 12.2934V8.38338ZM15.2652 15.4794C14.8176 15.03 14.8162 14.3666 15.216 13.9166C15.666 13.4721 16.3282 13.4724 16.777 13.8729L22.3244 19.2505L22.3482 19.2745V19.331L22.4704 19.4532C22.5413 19.5658 22.584 19.6811 22.6316 19.8223V20.3752C22.6289 20.3843 22.6249 20.3964 22.6186 20.4152L22.6177 20.4179C22.6113 20.4372 22.6019 20.4654 22.5943 20.4931C22.5894 20.5112 22.5814 20.5422 22.5774 20.5792C22.5659 20.5987 22.5577 20.6153 22.5519 20.6269L22.5519 20.6269L22.5499 20.6309L22.543 20.6443L22.4928 20.6946C22.4803 20.707 22.4693 20.7193 22.4595 20.731L16.8305 26.1302L16.8261 26.1346C16.6049 26.3558 16.3441 26.4434 16.0749 26.4434C15.7731 26.4434 15.506 26.3168 15.267 26.0779C14.8272 25.6381 14.8679 24.9299 15.3124 24.5298L18.8593 21.1167H8.65158C8.02393 21.1167 7.53491 20.6277 7.53491 20C7.53491 19.3883 8.00754 18.94 8.65158 18.94H18.859L15.2652 15.4794Z" fill="#13DA5A"/>
</svg>
